<svg width="80" height="91" viewBox="0 0 80 91" fill="none" xmlns="http://www.w3.org/2000/svg">
<path d="M39.6 45.2571C52.0987 45.2571 62.2286 35.1273 62.2286 22.6286C62.2286 10.1298 52.0987 0 39.6 0C27.1012 0 16.9714 10.1298 16.9714 22.6286C16.9714 35.1273 27.1012 45.2571 39.6 45.2571ZM55.44 50.9143H52.4877C48.563 52.7175 44.1964 53.7429 39.6 53.7429C35.0036 53.7429 30.6546 52.7175 26.7123 50.9143H23.76C10.6425 50.9143 0 61.5568 0 74.6743V82.0286C0 86.7134 3.80089 90.5143 8.48571 90.5143H70.7143C75.3991 90.5143 79.2 86.7134 79.2 82.0286V74.6743C79.2 61.5568 68.5575 50.9143 55.44 50.9143Z" fill="black"/>
</svg>
